<svg xmlns="http://www.w3.org/2000/svg" xmlns:xlink="http://www.w3.org/1999/xlink" x="0" y="0" width="485.6000061035156" height="341.3125" style="
        width:485.6000061035156px;
        height:341.3125px;
        background: #FFF;
        fill: none;
">
        
        
        <svg xmlns="http://www.w3.org/2000/svg" class="role-diagram-draw-area" style="overflow: visible;"><g class="shapes-region" style="stroke: black; fill: none;"><g class="arrow-line"><path class="connection real" stroke-dasharray="" d="  M120.27,110.53 L360.27,111.2" style="stroke: rgb(208, 2, 27); stroke-opacity: 1; stroke-width: 1; fill: none; fill-opacity: 1;"/></g><g class="arrow-line"><path class="connection real" stroke-dasharray="" d="  M120.27,110.53 L120.27,230.53" style="stroke: rgb(208, 2, 27); stroke-opacity: 1; stroke-width: 1; fill: none; fill-opacity: 1;"/></g><g class="arrow-line"><path class="connection real" stroke-dasharray="" d="  M120.27,230.53 L359.6,230.53" style="stroke: rgb(208, 2, 27); stroke-opacity: 1; stroke-width: 1; fill: none; fill-opacity: 1;"/></g><g class="arrow-line"><path class="connection real" stroke-dasharray="" d="  M360.27,111.2 L359.6,230.53" style="stroke: rgb(208, 2, 27); stroke-opacity: 1; stroke-width: 1; fill: none; fill-opacity: 1;"/></g><g class="arrow-line"><path class="connection real" stroke-dasharray="" d="  M240.27,110.87 L239.93,230.53" style="stroke: rgb(208, 2, 27); stroke-opacity: 1; stroke-width: 1; fill: none; fill-opacity: 1;"/></g><g class="arrow-line"><path class="connection real" stroke-dasharray="" d="  M120.27,110.53 L30.27,169.87" style="stroke: rgb(208, 2, 27); stroke-opacity: 1; stroke-width: 1; fill: none; fill-opacity: 1;"/></g><g class="arrow-line"><path class="connection real" stroke-dasharray="" d="  M30.27,169.87 L120.27,230.53" style="stroke: rgb(208, 2, 27); stroke-opacity: 1; stroke-width: 1; fill: none; fill-opacity: 1;"/></g><g class="arrow-line"><path class="connection real" stroke-dasharray="" d="  M240.27,110.87 L300.27,21.2" style="stroke: rgb(208, 2, 27); stroke-opacity: 1; stroke-width: 1; fill: none; fill-opacity: 1;"/></g><g class="arrow-line"><path class="connection real" stroke-dasharray="" d="  M300.27,21.2 L360.27,111.2" style="stroke: rgb(208, 2, 27); stroke-opacity: 1; stroke-width: 1; fill: none; fill-opacity: 1;"/></g><g class="arrow-line"><path class="connection real" stroke-dasharray="" d="  M239.93,230.53 L299.6,320.67" style="stroke: rgb(208, 2, 27); stroke-opacity: 1; stroke-width: 1; fill: none; fill-opacity: 1;"/></g><g class="arrow-line"><path class="connection real" stroke-dasharray="" d="  M359.6,230.53 L299.6,320.67" style="stroke: rgb(208, 2, 27); stroke-opacity: 1; stroke-width: 1; fill: none; fill-opacity: 1;"/></g><g class="arrow-line"><path class="connection real" stroke-dasharray="" d="  M359.6,230.53 L450.27,170" style="stroke: rgb(208, 2, 27); stroke-opacity: 1; stroke-width: 1; fill: none; fill-opacity: 1;"/></g><g class="arrow-line"><path class="connection real" stroke-dasharray="" d="  M359.6,230.53 L450.27,290.67" style="stroke: rgb(208, 2, 27); stroke-opacity: 1; stroke-width: 1; fill: none; fill-opacity: 1;"/></g><g class="arrow-line"><path class="connection real" stroke-dasharray="" d="  M450.27,170 L450.27,290.67" style="stroke: rgb(208, 2, 27); stroke-opacity: 1; stroke-width: 1; fill: none; fill-opacity: 1;"/></g><g class="composite-shape"><path class="real" d=" M67.77,140.2 C67.77,136.06 71.12,132.7 75.27,132.7 C79.41,132.7 82.77,136.06 82.77,140.2 C82.77,144.34 79.41,147.7 75.27,147.7 C71.12,147.7 67.77,144.34 67.77,140.2 Z" style="stroke-width: 1; stroke: rgb(245, 166, 35); stroke-opacity: 1; fill: none; fill-opacity: 1;"/></g><g class="composite-shape"><path class="real" d=" M67.77,200.2 C67.77,196.06 71.12,192.7 75.27,192.7 C79.41,192.7 82.77,196.06 82.77,200.2 C82.77,204.34 79.41,207.7 75.27,207.7 C71.12,207.7 67.77,204.34 67.77,200.2 Z" style="stroke-width: 1; stroke: rgb(245, 166, 35); stroke-opacity: 1; fill: none; fill-opacity: 1;"/></g><g class="composite-shape"><path class="real" d=" M173.1,110.87 C173.1,106.72 176.46,103.37 180.6,103.37 C184.74,103.37 188.1,106.72 188.1,110.87 C188.1,115.01 184.74,118.37 180.6,118.37 C176.46,118.37 173.1,115.01 173.1,110.87 Z" style="stroke-width: 1; stroke: rgb(245, 166, 35); stroke-opacity: 1; fill: none; fill-opacity: 1;"/></g><g class="composite-shape"><path class="real" d=" M173.1,230.87 C173.1,226.72 176.46,223.37 180.6,223.37 C184.74,223.37 188.1,226.72 188.1,230.87 C188.1,235.01 184.74,238.37 180.6,238.37 C176.46,238.37 173.1,235.01 173.1,230.87 Z" style="stroke-width: 1; stroke: rgb(245, 166, 35); stroke-opacity: 1; fill: none; fill-opacity: 1;"/></g><g class="composite-shape"><path class="real" d=" M262.77,66.03 C262.77,61.89 266.12,58.53 270.27,58.53 C274.41,58.53 277.77,61.89 277.77,66.03 C277.77,70.18 274.41,73.53 270.27,73.53 C266.12,73.53 262.77,70.18 262.77,66.03 Z" style="stroke-width: 1; stroke: rgb(245, 166, 35); stroke-opacity: 1; fill: none; fill-opacity: 1;"/></g><g class="composite-shape"><path class="real" d=" M322.77,66.2 C322.77,62.06 326.12,58.7 330.27,58.7 C334.41,58.7 337.77,62.06 337.77,66.2 C337.77,70.34 334.41,73.7 330.27,73.7 C326.12,73.7 322.77,70.34 322.77,66.2 Z" style="stroke-width: 1; stroke: rgb(245, 166, 35); stroke-opacity: 1; fill: none; fill-opacity: 1;"/></g><g class="composite-shape"><path class="real" d=" M352.43,170.87 C352.43,166.72 355.79,163.37 359.93,163.37 C364.08,163.37 367.43,166.72 367.43,170.87 C367.43,175.01 364.08,178.37 359.93,178.37 C355.79,178.37 352.43,175.01 352.43,170.87 Z" style="stroke-width: 1; stroke: rgb(245, 166, 35); stroke-opacity: 1; fill: none; fill-opacity: 1;"/></g><g class="composite-shape"><path class="real" d=" M232.6,170.7 C232.6,166.56 235.96,163.2 240.1,163.2 C244.24,163.2 247.6,166.56 247.6,170.7 C247.6,174.84 244.24,178.2 240.1,178.2 C235.96,178.2 232.6,174.84 232.6,170.7 Z" style="stroke-width: 1; stroke: rgb(65, 117, 5); stroke-opacity: 1; fill: none; fill-opacity: 1;"/></g><g class="composite-shape"><path class="real" d=" M262.27,275.6 C262.27,271.46 265.62,268.1 269.77,268.1 C273.91,268.1 277.27,271.46 277.27,275.6 C277.27,279.74 273.91,283.1 269.77,283.1 C265.62,283.1 262.27,279.74 262.27,275.6 Z" style="stroke-width: 1; stroke: rgb(245, 166, 35); stroke-opacity: 1; fill: none; fill-opacity: 1;"/></g><g class="composite-shape"><path class="real" d=" M322.1,275.6 C322.1,271.46 325.46,268.1 329.6,268.1 C333.74,268.1 337.1,271.46 337.1,275.6 C337.1,279.74 333.74,283.1 329.6,283.1 C325.46,283.1 322.1,279.74 322.1,275.6 Z" style="stroke-width: 1; stroke: rgb(245, 166, 35); stroke-opacity: 1; fill: none; fill-opacity: 1;"/></g><g class="composite-shape"><path class="real" d=" M397.43,200.27 C397.43,196.12 400.79,192.77 404.93,192.77 C409.08,192.77 412.43,196.12 412.43,200.27 C412.43,204.41 409.08,207.77 404.93,207.77 C400.79,207.77 397.43,204.41 397.43,200.27 Z" style="stroke-width: 1; stroke: rgb(245, 166, 35); stroke-opacity: 1; fill: none; fill-opacity: 1;"/></g><g class="composite-shape"><path class="real" d=" M397.43,260.6 C397.43,256.46 400.79,253.1 404.93,253.1 C409.08,253.1 412.43,256.46 412.43,260.6 C412.43,264.74 409.08,268.1 404.93,268.1 C400.79,268.1 397.43,264.74 397.43,260.6 Z" style="stroke-width: 1; stroke: rgb(245, 166, 35); stroke-opacity: 1; fill: none; fill-opacity: 1;"/></g><g class="composite-shape"><path class="real" d=" M442.77,230.33 C442.77,226.19 446.12,222.83 450.27,222.83 C454.41,222.83 457.77,226.19 457.77,230.33 C457.77,234.48 454.41,237.83 450.27,237.83 C446.12,237.83 442.77,234.48 442.77,230.33 Z" style="stroke-width: 1; stroke: rgb(245, 166, 35); stroke-opacity: 1; fill: none; fill-opacity: 1;"/></g><g class="composite-shape"><path class="real" d=" M173.1,170.2 C173.1,166.06 176.46,162.7 180.6,162.7 C184.74,162.7 188.1,166.06 188.1,170.2 C188.1,174.34 184.74,177.7 180.6,177.7 C176.46,177.7 173.1,174.34 173.1,170.2 Z" style="stroke-width: 1; stroke: rgb(65, 117, 5); stroke-opacity: 1; fill: none; fill-opacity: 1;"/></g><g class="composite-shape"><path class="real" d=" M293.1,170.2 C293.1,166.06 296.46,162.7 300.6,162.7 C304.74,162.7 308.1,166.06 308.1,170.2 C308.1,174.34 304.74,177.7 300.6,177.7 C296.46,177.7 293.1,174.34 293.1,170.2 Z" style="stroke-width: 1; stroke: rgb(65, 117, 5); stroke-opacity: 1; fill: none; fill-opacity: 1;"/></g><g class="composite-shape"><path class="real" d=" M292.43,86.2 C292.43,82.06 295.79,78.7 299.93,78.7 C304.08,78.7 307.43,82.06 307.43,86.2 C307.43,90.34 304.08,93.7 299.93,93.7 C295.79,93.7 292.43,90.34 292.43,86.2 Z" style="stroke-width: 1; stroke: rgb(65, 117, 5); stroke-opacity: 1; fill: none; fill-opacity: 1;"/></g><g class="composite-shape"><path class="real" d=" M293.1,254.87 C293.1,250.72 296.46,247.37 300.6,247.37 C304.74,247.37 308.1,250.72 308.1,254.87 C308.1,259.01 304.74,262.37 300.6,262.37 C296.46,262.37 293.1,259.01 293.1,254.87 Z" style="stroke-width: 1; stroke: rgb(65, 117, 5); stroke-opacity: 1; fill: none; fill-opacity: 1;"/></g><g class="composite-shape"><path class="real" d=" M89.1,170.2 C89.1,166.06 92.46,162.7 96.6,162.7 C100.74,162.7 104.1,166.06 104.1,170.2 C104.1,174.34 100.74,177.7 96.6,177.7 C92.46,177.7 89.1,174.34 89.1,170.2 Z" style="stroke-width: 1; stroke: rgb(65, 117, 5); stroke-opacity: 1; fill: none; fill-opacity: 1;"/></g><g class="composite-shape"><path class="real" d=" M416.43,230.2 C416.43,226.06 419.79,222.7 423.93,222.7 C428.08,222.7 431.43,226.06 431.43,230.2 C431.43,234.34 428.08,237.7 423.93,237.7 C419.79,237.7 416.43,234.34 416.43,230.2 Z" style="stroke-width: 1; stroke: rgb(65, 117, 5); stroke-opacity: 1; fill: none; fill-opacity: 1;"/></g><g class="arrow-line"><path class="connection real" stroke-dasharray="1.125 3.35" d="  M80.4,146.35 L92.4,163.15" style="stroke: rgb(74, 144, 226); stroke-opacity: 1; stroke-width: 1; fill: none; fill-opacity: 1;"/></g><g class="arrow-line"><path class="connection real" stroke-dasharray="1.125 3.35" d="  M80.4,194.35 L92.4,177.15" style="stroke: rgb(74, 144, 226); stroke-opacity: 1; stroke-width: 1; fill: none; fill-opacity: 1;"/></g><g class="arrow-line"><path class="connection real" stroke-dasharray="1.125 3.35" d="  M104.1,170.2 L173.1,170.2" style="stroke: rgb(74, 144, 226); stroke-opacity: 1; stroke-width: 1; fill: none; fill-opacity: 1;"/></g><g class="arrow-line"><path class="connection real" stroke-dasharray="1.125 3.35" d="  M180.6,118.37 L180.6,162.7" style="stroke: rgb(74, 144, 226); stroke-opacity: 1; stroke-width: 1; fill: none; fill-opacity: 1;"/></g><g class="arrow-line"><path class="connection real" stroke-dasharray="1.125 3.35" d="  M180.6,177.7 L180.6,223.37" style="stroke: rgb(74, 144, 226); stroke-opacity: 1; stroke-width: 1; fill: none; fill-opacity: 1;"/></g><g class="arrow-line"><path class="connection real" stroke-dasharray="1.125 3.35" d="  M232.6,170.7 L188.1,170.2" style="stroke: rgb(74, 144, 226); stroke-opacity: 1; stroke-width: 1; fill: none; fill-opacity: 1;"/></g><g class="arrow-line"><path class="connection real" stroke-dasharray="1.125 3.35" d="  M299.93,93.7 L300.6,162.7" style="stroke: rgb(74, 144, 226); stroke-opacity: 1; stroke-width: 1; fill: none; fill-opacity: 1;"/></g><g class="arrow-line"><path class="connection real" stroke-dasharray="1.125 3.35" d="  M277.2,70.11 L292.8,81.71" style="stroke: rgb(74, 144, 226); stroke-opacity: 1; stroke-width: 1; fill: none; fill-opacity: 1;"/></g><g class="arrow-line"><path class="connection real" stroke-dasharray="1.125 3.35" d="  M323.6,70.51 L307.2,82.11" style="stroke: rgb(74, 144, 226); stroke-opacity: 1; stroke-width: 1; fill: none; fill-opacity: 1;"/></g><g class="arrow-line"><path class="connection real" stroke-dasharray="1.125 3.35" d="  M308.1,170.2 L352.43,170.87" style="stroke: rgb(74, 144, 226); stroke-opacity: 1; stroke-width: 1; fill: none; fill-opacity: 1;"/></g><g class="arrow-line"><path class="connection real" stroke-dasharray="1.125 3.35" d="  M293.1,170.2 L247.6,170.7" style="stroke: rgb(74, 144, 226); stroke-opacity: 1; stroke-width: 1; fill: none; fill-opacity: 1;"/></g><g class="arrow-line"><path class="connection real" stroke-dasharray="1.125 3.35" d="  M300.6,247.37 L300.6,177.7" style="stroke: rgb(74, 144, 226); stroke-opacity: 1; stroke-width: 1; fill: none; fill-opacity: 1;"/></g><g class="arrow-line"><path class="connection real" stroke-dasharray="1.125 3.35" d="  M294,260.27 L276.4,271.47" style="stroke: rgb(74, 144, 226); stroke-opacity: 1; stroke-width: 1; fill: none; fill-opacity: 1;"/></g><g class="arrow-line"><path class="connection real" stroke-dasharray="1.125 3.35" d="  M322.4,271.07 L306.8,259.87" style="stroke: rgb(74, 144, 226); stroke-opacity: 1; stroke-width: 1; fill: none; fill-opacity: 1;"/></g><g class="arrow-line"><path class="connection real" stroke-dasharray="1.125 3.35" d="  M410.4,206.67 L420,223.47" style="stroke: rgb(74, 144, 226); stroke-opacity: 1; stroke-width: 1; fill: none; fill-opacity: 1;"/></g><g class="arrow-line"><path class="connection real" stroke-dasharray="1.125 3.35" d="  M431.43,230.2 L442.77,230.33" style="stroke: rgb(74, 144, 226); stroke-opacity: 1; stroke-width: 1; fill: none; fill-opacity: 1;"/></g><g class="arrow-line"><path class="connection real" stroke-dasharray="1.125 3.35" d="  M410,254.27 L420.4,237.07" style="stroke: rgb(74, 144, 226); stroke-opacity: 1; stroke-width: 1; fill: none; fill-opacity: 1;"/></g><g class="arrow-line"><path class="connection real" stroke-dasharray="1.125 3.35" d="  M308.1,254.87 L416.43,230.2" style="stroke: rgb(74, 144, 226); stroke-opacity: 1; stroke-width: 1; fill: none; fill-opacity: 1;"/></g><g/></g><g/><g/><g/></svg>
        <svg xmlns="http://www.w3.org/2000/svg" xmlns:xlink="http://www.w3.org/1999/xlink" width="484" height="339.7124938964844" style="width:484px;height:339.7124938964844px;font-family:Asana-Math, Asana;background:#FFF;"><g><g><g><g transform="matrix(1,0,0,1,362.12506103515625,108.72498474121093)"><path transform="matrix(0.0136,0,0,-0.0136,0,0)" d="M418 -3L418 27L366 30C311 33 301 44 301 96L301 700L60 598L67 548L217 614L217 96C217 44 206 33 152 30L96 27L96 -3C250 0 250 0 261 0C292 0 402 -3 418 -3Z" stroke="rgb(0,0,0)" stroke-opacity="1" stroke-width="0" fill="rgb(0,0,0)" fill-opacity="1"></path></g></g></g></g><g><g><g><g transform="matrix(1,0,0,1,296.125,18.062493896484376)"><path transform="matrix(0.0136,0,0,-0.0136,0,0)" d="M16 23L16 -3C203 -3 203 0 239 0C275 0 275 -3 468 -3L468 82C353 77 307 81 122 77L304 270C401 373 431 428 431 503C431 618 353 689 226 689C154 689 105 669 56 619L39 483L68 483L81 529C97 587 133 612 200 612C286 612 341 558 341 473C341 398 299 324 186 204Z" stroke="rgb(0,0,0)" stroke-opacity="1" stroke-width="0" fill="rgb(0,0,0)" fill-opacity="1"></path></g></g></g></g><g><g><g><g transform="matrix(1,0,0,1,233.4625244140625,106.72498474121093)"><path transform="matrix(0.0136,0,0,-0.0136,0,0)" d="M462 224C462 345 355 366 308 374C388 436 418 482 418 541C418 630 344 689 233 689C165 689 120 670 72 622L43 498L74 498L92 554C103 588 166 622 218 622C283 622 336 569 336 506C336 431 277 368 206 368C198 368 187 369 174 370L159 371L147 318L154 312C192 329 211 334 238 334C321 334 369 281 369 190C369 88 308 21 215 21C169 21 128 36 98 64C74 86 61 109 42 163L15 153C36 92 44 56 50 6C103 -12 147 -20 184 -20C307 -20 462 87 462 224Z" stroke="rgb(0,0,0)" stroke-opacity="1" stroke-width="0" fill="rgb(0,0,0)" fill-opacity="1"></path></g></g></g></g><g><g><g><g transform="matrix(1,0,0,1,112.800048828125,108.06250915527343)"><path transform="matrix(0.0136,0,0,-0.0136,0,0)" d="M280 181L280 106C280 46 269 32 220 30L158 27L158 -3C291 0 291 0 315 0C339 0 339 0 472 -3L472 27L424 30C375 33 364 46 364 106L364 181C423 181 444 180 472 177L472 248L364 245L365 697L285 667L2 204L2 181ZM280 245L65 245L280 597Z" stroke="rgb(0,0,0)" stroke-opacity="1" stroke-width="0" fill="rgb(0,0,0)" fill-opacity="1"></path></g></g></g></g><g><g><g><g transform="matrix(1,0,0,1,20.800048828125,175.4000030517578)"><path transform="matrix(0.0136,0,0,-0.0136,0,0)" d="M459 253C459 366 378 446 264 446C216 446 180 443 127 396L127 605L432 604L432 689L75 690L75 322L95 316C142 363 169 377 218 377C314 377 374 309 374 201C374 90 310 25 201 25C147 25 97 43 83 69L37 151L13 137C36 80 48 48 62 4C90 -11 130 -20 173 -20C301 -20 459 89 459 253Z" stroke="rgb(0,0,0)" stroke-opacity="1" stroke-width="0" fill="rgb(0,0,0)" fill-opacity="1"></path></g></g></g></g><g><g><g><g transform="matrix(1,0,0,1,112.800048828125,242.06250915527343)"><path transform="matrix(0.0136,0,0,-0.0136,0,0)" d="M131 331C152 512 241 611 421 665L379 689C283 657 242 637 191 593C88 506 32 384 32 247C32 82 112 -20 241 -20C371 -20 468 83 468 219C468 334 399 409 293 409C216 409 184 370 131 331ZM255 349C331 349 382 283 382 184C382 80 331 13 254 13C169 13 123 86 123 220C123 255 127 274 138 291C160 325 207 349 255 349Z" stroke="rgb(0,0,0)" stroke-opacity="1" stroke-width="0" fill="rgb(0,0,0)" fill-opacity="1"></path></g></g></g></g><g><g><g><g transform="matrix(1,0,0,1,296.800048828125,332.7250152587891)"><path transform="matrix(0.0136,0,0,-0.0136,0,0)" d="M168 345C127 326 110 315 88 294C50 256 30 211 30 159C30 56 113 -20 226 -20C356 -20 464 82 464 206C464 286 427 329 313 381C404 443 436 485 436 545C436 631 365 689 259 689C140 689 53 613 53 508C53 440 80 402 168 345ZM284 295C347 267 385 218 385 164C385 80 322 14 241 14C156 14 101 74 101 167C101 240 130 286 204 331ZM223 423C160 454 128 494 128 544C128 610 176 655 247 655C320 655 368 607 368 534C368 477 343 438 278 396Z" stroke="rgb(0,0,0)" stroke-opacity="1" stroke-width="0" fill="rgb(0,0,0)" fill-opacity="1"></path></g></g></g></g><g><g><g><g transform="matrix(1,0,0,1,361.46258544921875,224.59998474121093)"><path transform="matrix(0.0136,0,0,-0.0136,0,0)" d="M96 -20C207 16 255 39 309 85C406 168 457 283 457 417C457 586 376 689 244 689C116 689 20 589 20 455C20 340 95 256 199 256C233 256 272 267 290 282L360 340C352 172 243 49 62 5L62 -3ZM240 656C285 656 318 637 340 597C358 565 370 516 370 471C370 379 317 317 240 317C160 317 106 388 106 492C106 593 158 656 240 656Z" stroke="rgb(0,0,0)" stroke-opacity="1" stroke-width="0" fill="rgb(0,0,0)" fill-opacity="1"></path></g></g></g></g><g><g><g><g transform="matrix(1,0,0,1,442.79998779296875,302.06250915527346)"><path transform="matrix(0.0136,0,0,-0.0136,0,0)" d="M418 -3L418 27L366 30C311 33 301 44 301 96L301 700L60 598L67 548L217 614L217 96C217 44 206 33 152 30L96 27L96 -3C250 0 250 0 261 0C292 0 402 -3 418 -3ZM762 689C607 689 528 566 528 324C528 207 549 106 584 57C619 8 675 -20 737 -20C888 -20 964 110 964 366C964 585 899 689 762 689ZM744 654C841 654 880 556 880 316C880 103 842 15 750 15C653 15 612 116 612 360C612 571 649 654 744 654Z" stroke="rgb(0,0,0)" stroke-opacity="1" stroke-width="0" fill="rgb(0,0,0)" fill-opacity="1"></path></g></g></g></g><g><g><g><g transform="matrix(1,0,0,1,442.79998779296875,168.06250915527343)"><path transform="matrix(0.0136,0,0,-0.0136,0,0)" d="M418 -3L418 27L366 30C311 33 301 44 301 96L301 700L60 598L67 548L217 614L217 96C217 44 206 33 152 30L96 27L96 -3C250 0 250 0 261 0C292 0 402 -3 418 -3ZM917 -3L917 27L865 30C810 33 800 44 800 96L800 700L559 598L566 548L716 614L716 96C716 44 705 33 651 30L595 27L595 -3C749 0 749 0 760 0C791 0 901 -3 917 -3Z" stroke="rgb(0,0,0)" stroke-opacity="1" stroke-width="0" fill="rgb(0,0,0)" fill-opacity="1"></path></g></g></g></g><g><g><g><g transform="matrix(1,0,0,1,232.125,242.72498474121093)"><path transform="matrix(0.0136,0,0,-0.0136,0,0)" d="M409 603L47 -1L157 -1L497 659L497 689L44 689L44 477L74 477L81 533C89 595 96 603 142 603Z" stroke="rgb(0,0,0)" stroke-opacity="1" stroke-width="0" fill="rgb(0,0,0)" fill-opacity="1"></path></g></g></g></g></svg>
</svg>
